<svg width="33" height="32" viewBox="0 0 33 32" fill="none" xmlns="http://www.w3.org/2000/svg">
<path d="M16.5 22.6665C20.1818 22.6665 23.1666 19.6816 23.1666 15.9998C23.1666 12.3179 20.1818 9.33313 16.5 9.33313C12.8181 9.33313 9.83331 12.3179 9.83331 15.9998C9.83331 19.6816 12.8181 22.6665 16.5 22.6665Z" stroke="#EDEDED" stroke-width="2" stroke-linecap="round" stroke-linejoin="round"/>
<path d="M1.5 22.6667V9.33333C1.5 4.73097 5.23097 1 9.83333 1H23.1667C27.769 1 31.5 4.73097 31.5 9.33333V22.6667C31.5 27.269 27.769 31 23.1667 31H9.83333C5.23097 31 1.5 27.269 1.5 22.6667Z" stroke="#EDEDED" stroke-width="2"/>
<path d="M25.6666 6.85043L25.6833 6.83191" stroke="#EDEDED" stroke-width="2" stroke-linecap="round" stroke-linejoin="round"/>
</svg>
