<svg width="44" height="23" viewBox="0 0 44 23" fill="none" xmlns="http://www.w3.org/2000/svg">
<g clip-path="url(#clip0_5_1174)">
<path d="M29.0898 16.9641H31.8673C32.2353 19.9319 34.2419 20.7578 36.818 20.7578C39.6626 20.7578 40.8337 19.5373 40.8337 17.9542C40.8337 16.0401 39.496 15.5475 36.3157 14.8883C32.9017 14.1947 29.8582 13.5036 29.8582 9.7761C29.8582 6.94062 32.0662 5.09277 36.082 5.09277C40.3638 5.09277 42.4724 7.10481 42.8752 10.4353H40.0977C39.8292 8.19293 38.5909 7.20284 36.0148 7.20284C33.4388 7.20284 32.5362 8.29096 32.5362 9.64376C32.5362 11.4916 34.2096 11.8543 37.186 12.4474C40.6646 13.1409 43.5764 13.8982 43.5764 17.8218C43.5764 21.2504 40.7318 23.0002 36.7508 23.0002C31.9991 23.0002 29.3559 20.7921 29.0898 16.9665V16.9641Z" fill="#F94940"/>
<path d="M4.90593 6.30573C5.81848 5.78128 6.92996 5.5166 8.24285 5.5166V8.36679H7.50435C4.36635 8.36679 2.79735 10.0455 2.79735 13.3981V22.4315H0V5.82049H2.79983V8.51873C3.29217 7.5703 3.99337 6.83264 4.90593 6.30573Z" fill="#F94940"/>
<path d="M10.3291 9.59457C11.0253 8.31039 11.9851 7.3154 13.206 6.60959C14.4269 5.90133 15.7945 5.54843 17.3113 5.54843C18.6242 5.54843 19.8451 5.84742 20.9715 6.44294C22.0979 7.03847 22.9607 7.8227 23.555 8.79318V0H26.3846V22.4339H23.555V19.3117C23.0005 20.3018 22.1799 21.1154 21.0933 21.7526C20.0067 22.3898 18.7361 22.7084 17.279 22.7084C15.8218 22.7084 14.4219 22.3457 13.2035 21.6178C11.9826 20.8899 11.0253 19.8704 10.3266 18.5568C9.63039 17.2433 9.27979 15.7483 9.27979 14.0696C9.27979 12.3908 9.6279 10.8812 10.3266 9.59702L10.3291 9.59457ZM22.7866 10.8224C22.2744 9.89355 21.5807 9.18039 20.7104 8.68535C19.8401 8.1903 18.8803 7.94278 17.8335 7.94278C16.7866 7.94278 15.8343 8.1854 14.9739 8.67065C14.1136 9.15589 13.4248 9.86415 12.9126 10.793C12.4004 11.7218 12.1443 12.8148 12.1443 14.0671C12.1443 15.3194 12.4004 16.4468 12.9126 17.3854C13.4248 18.3265 14.1111 19.0421 14.9739 19.5371C15.8343 20.0322 16.7891 20.2797 17.8335 20.2797C18.8778 20.2797 19.8376 20.0322 20.7104 19.5371C21.5807 19.0421 22.2744 18.324 22.7866 17.3854C23.2988 16.4468 23.555 15.3489 23.555 14.0965C23.555 12.8442 23.2988 11.7536 22.7866 10.8224Z" fill="#F94940"/>
</g>
<defs>
<clipPath id="clip0_5_1174">
<rect width="43.5789" height="23" fill="white"/>
</clipPath>
</defs>
</svg>
