<svg width="17" height="15" viewBox="0 0 17 15" fill="none" xmlns="http://www.w3.org/2000/svg">
<path d="M16 1.00686C16 1.00686 14.6242 1.81966 13.8591 2.05004C13.4484 1.57789 12.9027 1.24324 12.2957 1.09135C11.6887 0.939468 11.0497 0.97767 10.4651 1.2008C9.88048 1.42393 9.37845 1.82122 9.02705 2.33893C8.67557 2.85665 8.49161 3.46981 8.5 4.09549V4.77731C7.30177 4.80838 6.1145 4.54264 5.04387 4.00375C3.97323 3.46486 3.05249 2.66956 2.36364 1.68868C2.36364 1.68868 -0.363636 7.82507 5.77273 10.5523C4.36854 11.5055 2.69579 11.9834 1 11.916C7.13636 15.3251 14.6364 11.916 14.6364 4.07504C14.6358 3.88512 14.6175 3.69567 14.5818 3.50913C15.2777 2.82287 16 1.00686 16 1.00686Z" stroke="#EDEDED" stroke-width="2" stroke-linecap="round" stroke-linejoin="round"/>
</svg>
